<svg width="29" height="28" viewBox="0 0 29 28" fill="none" xmlns="http://www.w3.org/2000/svg">
<path d="M19.8191 4.64306C21.3969 4.31257 22.4364 3.53294 22.6878 1.8042C23.0304 3.43125 23.9529 4.34364 25.6135 4.60634C24.0372 4.93401 22.9919 5.72776 22.7235 7.4565C22.4136 5.82804 21.5112 4.87186 19.8191 4.64306Z" fill="url(#paint0_linear_119_831)"/>
<path d="M19.8191 22.2898C21.3969 21.9593 22.4364 21.1797 22.6878 19.4509C23.0304 21.078 23.9529 21.9904 25.6135 22.2531C24.0372 22.5807 22.9919 23.3745 22.7235 25.1032C22.4136 23.4748 21.5112 22.5186 19.8191 22.2898Z" fill="url(#paint1_linear_119_831)"/>
<path d="M1.27124 22.2898C2.84909 21.9593 3.88863 21.1797 4.13994 19.4509C4.48264 21.078 5.40508 21.9904 7.06576 22.2531C5.48932 22.5807 4.44409 23.3745 4.17564 25.1032C3.86578 23.4748 2.96333 22.5186 1.27124 22.2898Z" fill="url(#paint2_linear_119_831)"/>
<path d="M0 13.7773C7.6575 12.1734 12.7025 8.38975 13.9221 0C15.5853 7.89623 20.0619 12.3241 28.1214 13.5991C20.4708 15.1893 15.3982 19.0414 14.0954 27.4312C12.5915 19.5281 8.21189 14.8877 0 13.7773Z" fill="url(#paint3_linear_119_831)"/>
<defs>
<linearGradient id="paint0_linear_119_831" x1="20.1088" y1="1.98622" x2="25.47" y2="7.77151" gradientUnits="userSpaceOnUse">
<stop stop-color="#8BDCFF"/>
<stop offset="1" stop-color="#AF1ED3"/>
</linearGradient>
<linearGradient id="paint1_linear_119_831" x1="20.1088" y1="19.6329" x2="25.47" y2="25.4182" gradientUnits="userSpaceOnUse">
<stop stop-color="#8BDCFF"/>
<stop offset="1" stop-color="#AF1ED3"/>
</linearGradient>
<linearGradient id="paint2_linear_119_831" x1="1.56097" y1="19.6329" x2="6.92215" y2="25.4183" gradientUnits="userSpaceOnUse">
<stop stop-color="#8BDCFF"/>
<stop offset="1" stop-color="#AF1ED3"/>
</linearGradient>
<linearGradient id="paint3_linear_119_831" x1="1.40607" y1="0.883344" x2="27.4245" y2="28.9603" gradientUnits="userSpaceOnUse">
<stop stop-color="#8BDCFF"/>
<stop offset="1" stop-color="#AF1ED3"/>
</linearGradient>
</defs>
</svg>
